<?xml version="1.0" standalone="no"?><!DOCTYPE svg PUBLIC "-//W3C//DTD SVG 1.1//EN" "http://www.w3.org/Graphics/SVG/1.1/DTD/svg11.dtd"><svg t="1753796141551" class="icon" viewBox="0 0 1024 1024" version="1.1" xmlns="http://www.w3.org/2000/svg" p-id="3383" xmlns:xlink="http://www.w3.org/1999/xlink" width="16" height="16"><path d="M121.173333 477.397333l2.944 1.194667 106.666667 47.786667a42.666667 42.666667 0 0 1-31.786667 79.146666l-3.114666-1.258666-42.453334-19.029334 0.725334 5.674667c5.973333 42.730667 17.429333 80.618667 34.282666 114.282667l3.968 7.68a284.714667 284.714667 0 0 0 118.698667 118.72c50.816 27.178667 111.445333 41.664 184.341333 42.965333l11.029334 0.106667h11.050666c77.824 0 142.016-14.549333 195.370667-43.093334a284.714667 284.714667 0 0 0 118.698667-118.677333c7.765333-14.549333 14.485333-29.845333 20.16-45.994667a42.666667 42.666667 0 0 1 80.512 28.288c-7.125333 20.245333-15.573333 39.552-25.429334 57.941334a370.048 370.048 0 0 1-153.706666 153.706666c-63.488 33.941333-137.578667 51.584-223.786667 53.056L517.546667 960h-11.050667c-91.264 0-169.237333-17.664-235.605333-53.162667a370.048 370.048 0 0 1-153.706667-153.706666C81.664 686.762667 64 608.789333 64 517.546667a42.666667 42.666667 0 0 1 57.173333-40.106667zM512 362.666667a149.333333 149.333333 0 1 1 0 298.666666 149.333333 149.333333 0 0 1 0-298.666666z m0 85.333333a64 64 0 1 0 0 128 64 64 0 0 0 0-128z m5.525333-384c91.264 0 169.237333 17.664 235.605334 53.162667a370.048 370.048 0 0 1 153.706666 153.706666C942.336 337.237333 960 415.210667 960 506.453333a42.666667 42.666667 0 0 1-57.173333 40.106667l-2.944-1.173333-106.666667-47.786667a42.666667 42.666667 0 0 1 31.786667-79.146667l3.114666 1.258667 42.432 19.008-0.704-5.653333c-5.973333-42.730667-17.429333-80.618667-34.282666-114.282667l-3.968-7.68a284.714667 284.714667 0 0 0-118.698667-118.72c-50.816-27.178667-111.445333-41.664-184.341333-42.965333L517.525333 149.333333h-11.050666c-77.824 0-142.016 14.549333-195.370667 43.093334a284.714667 284.714667 0 0 0-118.698667 118.677333c-7.765333 14.549333-14.485333 29.845333-20.16 45.994667A42.666667 42.666667 0 1 1 91.733333 328.810667c7.125333-20.245333 15.573333-39.552 25.429334-57.941334a370.048 370.048 0 0 1 153.706666-153.706666c63.488-33.941333 137.578667-51.584 223.786667-53.056L506.453333 64h11.050667z" fill="#2c2c2c" p-id="3384"></path></svg>