<?xml version="1.0" standalone="no"?><!DOCTYPE svg PUBLIC "-//W3C//DTD SVG 1.1//EN" "http://www.w3.org/Graphics/SVG/1.1/DTD/svg11.dtd"><svg t="1753791434608" class="icon" viewBox="0 0 1024 1024" version="1.1" xmlns="http://www.w3.org/2000/svg" p-id="2342" width="16" height="16" xmlns:xlink="http://www.w3.org/1999/xlink"><path d="M512 1024C229.6832 1024 0 794.3168 0 512S229.6832 0 512 0s512 229.6832 512 512-229.6832 512-512 512z m0-960C264.9728 64 64 264.9728 64 512s200.9728 448 448 448 448-200.9728 448-448S759.0272 64 512 64z" p-id="2343" fill="#2c2c2c"></path><path d="M502.536533 400c0-66.478933-54.084267-120.5632-120.5632-120.5632S261.410133 333.521067 261.410133 400c0 55.3984 37.572267 102.161067 88.5632 116.215467V744.106667h64v-227.8912c50.990933-14.0544 88.5632-60.817067 88.5632-116.215467z m-120.5632 56.5632c-31.189333 0-56.5632-25.373867-56.5632-56.5632s25.373867-56.5632 56.5632-56.5632 56.5632 25.373867 56.5632 56.5632-25.373867 56.5632-56.5632 56.5632zM672.4096 503.278933V279.889067h-64v223.3856c-50.990933 14.0544-88.5632 60.817067-88.5632 116.215466 0 66.478933 54.084267 120.567467 120.5632 120.567467s120.567467-54.088533 120.567467-120.567467c0-55.394133-37.576533-102.1568-88.567467-116.2112z m-32 172.778667c-31.189333 0-56.5632-25.373867-56.5632-56.567467 0-31.189333 25.373867-56.558933 56.5632-56.558933 31.1936 0 56.567467 25.3696 56.567467 56.558933 0 31.1936-25.378133 56.567467-56.567467 56.567467z" p-id="2344" fill="#2c2c2c"></path></svg>